<svg width="72" height="49" viewBox="0 0 72 49" fill="none" xmlns="http://www.w3.org/2000/svg">
<path d="M32.2017 36.9146C32.2466 36.836 32.3156 36.7936 32.4079 36.7932C32.5176 36.7948 32.6107 36.8479 32.6351 36.9472C32.6712 37.0937 32.7691 37.186 32.8634 37.2867C32.892 37.317 32.9203 37.3488 32.9412 37.3845C32.964 37.4227 33.0234 37.4625 32.9756 37.5107C32.9215 37.5648 32.8958 37.4859 32.8559 37.4701C32.6934 37.4063 32.5683 37.2793 32.4097 37.2079C32.3539 37.1827 32.3004 37.1529 32.2633 37.0945C32.2267 37.0375 32.1547 36.9966 32.2017 36.9146ZM39.4107 35.2726C39.4706 35.2086 39.5299 35.1485 39.5744 35.0685C39.6177 34.9908 39.695 35.0148 39.749 35.0747C39.8136 35.1462 39.8741 35.2215 39.9338 35.297C39.958 35.3276 39.9988 35.3579 39.9654 35.4051C39.9432 35.4365 39.9073 35.4412 39.8718 35.4392C39.8511 35.4381 39.8308 35.4324 39.7976 35.4264C39.7071 35.4365 39.6042 35.45 39.5006 35.4584C39.4524 35.4623 39.3994 35.4634 39.3757 35.4065C39.3535 35.3544 39.3777 35.3079 39.4107 35.2726ZM40.4413 35.4861C40.5221 35.4285 40.6156 35.4449 40.7057 35.4414C40.8115 35.44 40.9163 35.4476 41.0121 35.4976C41.0896 35.5378 41.0964 35.5922 41.022 35.6371C40.9682 35.6695 40.9206 35.7072 40.8706 35.7436C40.8179 35.7817 40.7428 35.7957 40.6927 35.7511C40.6203 35.6869 40.5368 35.6646 40.4491 35.643C40.413 35.6342 40.3879 35.6074 40.3859 35.5686C40.3838 35.5292 40.4125 35.5068 40.4413 35.4861ZM47.5329 37.6114C47.6589 37.596 47.775 37.5593 47.889 37.4973C48.0127 37.4301 48.1446 37.4569 48.2712 37.5224C48.5136 37.6475 48.7124 37.6126 48.9148 37.4217C48.9985 37.3427 49.0603 37.3035 49.2008 37.3724C49.3768 37.4586 49.586 37.4842 49.7667 37.5784C49.8036 37.5977 49.8498 37.6085 49.8765 37.6372C49.9591 37.7261 50.0455 37.7974 50.1751 37.8042C50.2498 37.8079 50.2814 37.8635 50.2836 37.9404C50.2787 37.956 50.2781 37.9814 50.265 37.995C50.1688 38.0949 50.1778 38.2268 50.156 38.3484C50.1435 38.4179 50.1333 38.4864 50.0961 38.5482C50.0535 38.6185 49.9907 38.6594 49.9245 38.5974C49.779 38.4614 49.6049 38.4745 49.4293 38.477C49.3593 38.478 49.2892 38.4719 49.219 38.4692C49.0898 38.4641 48.9983 38.4085 48.9366 38.2891C48.8283 38.0807 48.6523 37.9927 48.4158 38.0116C48.2898 38.0216 48.1651 38.0346 48.04 38.0522C47.918 38.0694 47.799 38.0618 47.7262 37.9382C47.6757 37.8524 47.5777 37.8366 47.5044 37.7843C47.4696 37.7593 47.4328 37.7339 47.4423 37.6844C47.4513 37.6372 47.4872 37.6169 47.5329 37.6114ZM50.4463 39.1519C50.427 39.2505 50.3431 39.2505 50.2801 39.2544C50.1376 39.2552 50.1058 39.2251 50.106 39.093C50.106 39.0173 50.0949 38.9287 50.2036 38.9147C50.26 38.9074 50.4568 39.0985 50.4463 39.1519ZM50.978 37.8216C51.0034 37.8112 51.0309 37.8007 51.0576 37.8005C51.1185 37.7999 51.1421 37.6932 51.2184 37.7453C51.2264 37.7509 51.2315 37.7693 51.229 37.7798C51.2184 37.828 51.0719 37.9818 51.0323 37.9855C50.981 37.9831 50.947 37.9509 50.9312 37.9016C50.9187 37.8623 50.9433 37.8356 50.978 37.8216ZM51.6428 38.6425C51.6731 38.6569 51.7008 38.7102 51.7027 38.7472C51.7129 38.934 51.7644 39.1174 51.7494 39.3063C51.7453 39.3592 51.7316 39.4058 51.6739 39.4156C51.6171 39.4253 51.5849 39.3849 51.5622 39.3395C51.5361 39.2879 51.5437 39.2306 51.5373 39.1754C51.523 39.0505 51.4838 39.0222 51.3583 39.0401C51.331 39.044 51.3047 39.0575 51.2772 39.0604C51.1613 39.0729 51.1039 39.0315 51.0922 38.9168C51.0842 38.8409 51.0906 38.7634 51.0906 38.6526C51.0951 38.5964 51.075 38.5045 51.1025 38.4159C51.1345 38.3127 51.1905 38.2869 51.2692 38.3511C51.3917 38.4505 51.4951 38.5728 51.6428 38.6425ZM51.7849 39.8798C51.813 39.824 51.8538 39.7937 51.9593 39.8175C52.1068 39.8316 52.2702 39.886 52.316 40.1022C52.3232 40.1356 52.3467 40.167 52.318 40.1986C52.2916 40.2281 52.2555 40.2306 52.2226 40.2142C52.0885 40.1465 51.9537 40.0792 51.8231 40.0052C51.78 39.981 51.7576 39.9342 51.7849 39.8798ZM53.253 41.4915C53.3715 41.575 53.4946 41.6513 53.5559 41.7946C53.5894 41.8728 53.6579 41.9235 53.7188 41.9807C53.7994 42.0566 53.8687 42.1438 53.9225 42.2416C53.9522 42.2956 53.9522 42.3495 53.9049 42.3944C53.8597 42.4373 53.8035 42.4502 53.752 42.4145C53.6255 42.3267 53.4971 42.2513 53.3395 42.2268C53.294 42.2197 53.2505 42.1608 53.2179 42.1171C53.1026 41.962 53.1194 41.6646 53.253 41.4915ZM1.17887 19.654C1.18543 19.6835 1.15979 19.7198 1.14995 19.7535C1.05744 20.0675 0.88944 20.3319 0.635704 20.5407C0.555502 20.6068 0.506478 20.7112 0.398789 20.7424C0.218076 20.7947 0.144439 20.9254 0.12926 21.0997C0.123721 21.1641 0.117157 21.2341 0.0734658 21.2773C-0.00222424 21.3522 0.00187817 21.44 0.00228841 21.5315C0.00290378 21.6509 0.0082393 21.7709 0.000854912 21.8898C-0.00632436 22.0068 0.0305964 22.0775 0.15408 22.0941C0.249667 22.1071 0.34997 22.151 0.361252 22.2465C0.383405 22.4332 0.520426 22.5362 0.623808 22.6631C0.683498 22.7366 0.727189 22.8073 0.734369 22.9052C0.757753 23.2192 0.761037 23.217 1.06359 23.3181C1.15241 23.3476 1.2523 23.354 1.30153 23.4652C1.38317 23.6492 1.49086 23.8217 1.56963 24.0065C1.67014 24.2422 1.75998 24.3041 2.01166 24.2906C2.14397 24.2834 2.27771 24.2692 2.40919 24.3105C2.5017 24.3394 2.54888 24.3878 2.54191 24.4926C2.5298 24.6815 2.52837 24.8711 2.52201 25.0602C2.51668 25.2212 2.59913 25.2942 2.75544 25.2659C2.81062 25.2559 2.85861 25.2411 2.90025 25.1929C3.05943 25.0079 3.23706 24.8584 3.50967 24.8977C3.6149 24.9127 3.6951 24.8512 3.76135 24.771C3.81489 24.7062 3.87191 24.644 3.93099 24.5843C3.99478 24.5199 4.05981 24.5119 4.1316 24.5812C4.26165 24.707 4.3999 24.8243 4.52851 24.9515C4.70799 25.1293 4.90388 25.254 5.17239 25.2405C5.34674 25.2317 5.54038 25.1872 5.69422 25.2592C5.91411 25.3619 6.15308 25.4192 6.3623 25.5359C6.57911 25.6571 6.79716 25.7115 7.03941 25.6815C7.11305 25.6725 7.18874 25.6891 7.24207 25.725C7.38771 25.8235 7.56821 25.8528 7.7038 25.9629C7.78216 26.0265 7.86297 26.0419 7.95712 26.0392C8.08348 26.0358 8.21004 26.037 8.3366 26.0388C8.40798 26.0401 8.48572 26.0415 8.54193 26.004C8.73064 25.8782 8.93986 25.8926 9.15052 25.8862C9.45472 25.8772 9.64651 26.0163 9.7661 26.2901C9.79891 26.3652 9.83255 26.4415 9.86825 26.5159C9.91153 26.6066 9.9747 26.6932 10.0713 26.7198C10.331 26.7918 10.4563 26.9906 10.5369 27.216C10.595 27.3783 10.7041 27.4589 10.8528 27.4851C11.0787 27.5249 11.3086 27.4794 11.5133 27.3978C11.7806 27.2911 11.9913 27.0966 12.1447 26.8425C12.3022 26.582 12.5209 26.4253 12.8489 26.4331C13.3687 26.4458 13.889 26.4353 14.4092 26.4376C14.5163 26.438 14.6135 26.4345 14.7005 26.3527C14.7625 26.2942 14.8535 26.2899 14.9401 26.2911C15.0876 26.2934 15.2353 26.2885 15.3829 26.2924C15.6082 26.2985 15.8313 26.284 16.0539 26.2489C16.138 26.2357 16.2041 26.2023 16.2754 26.1494C16.441 26.0267 16.5175 25.8436 16.6272 25.6848C16.7234 25.5455 16.8465 25.4175 16.8477 25.2218C16.8483 25.1381 16.9326 25.0516 17.0334 25.0501C17.1386 25.0485 17.2227 25.0186 17.3027 24.9541C17.3464 24.9189 17.4042 24.8977 17.4606 24.9031C17.6461 24.9209 17.8202 24.859 17.9999 24.8362C18.1107 24.8223 18.1857 24.7699 18.2235 24.6733C18.2713 24.5513 18.3589 24.5045 18.4819 24.4957C18.6487 24.4834 18.7656 24.4018 18.836 24.2446C18.8862 24.1326 18.9551 24.1078 19.0526 24.171C19.2355 24.2898 19.4101 24.2764 19.5779 24.1542C19.7469 24.0309 19.9022 24.0469 20.0556 24.1757C20.0995 24.2122 20.1432 24.242 20.2048 24.244C20.4002 24.2506 20.5986 24.2742 20.7352 24.083C20.7588 24.05 20.799 24.0286 20.8322 24.0028C20.9372 23.9209 21.0659 23.8955 21.161 23.9741C21.418 24.1858 21.6714 24.098 21.927 23.986C22.0113 23.9491 22.0968 23.9234 22.1862 23.9066C22.3973 23.8666 22.5848 23.8941 22.7466 24.0559C22.8662 24.1755 22.9759 24.3017 23.0625 24.4444C23.137 24.5673 23.2319 24.6383 23.3741 24.6653C23.7564 24.7377 23.7558 24.7412 23.8719 25.1178C23.9103 25.2423 23.9242 25.252 24.0393 25.1734C24.1068 25.1275 24.1773 25.1029 24.2274 25.1621C24.3275 25.2807 24.4524 25.259 24.5765 25.2491C24.6325 25.2446 24.6879 25.2341 24.7439 25.2434C24.8778 25.2657 24.9252 25.3769 24.846 25.4887C24.8138 25.5344 24.7736 25.5744 24.7365 25.6167C24.691 25.6684 24.6733 25.7266 24.7025 25.7908C24.7318 25.8555 24.7939 25.8456 24.8493 25.8458C24.9332 25.846 25.0229 25.8327 25.0674 25.9305C25.1246 26.0561 25.2421 26.1252 25.3252 26.2243C25.4169 26.1912 25.4581 26.1108 25.5244 26.0608C25.5652 26.03 25.5904 25.9896 25.6064 25.9414C25.6292 25.8727 25.6819 25.8548 25.7504 25.8417C26.0169 25.791 26.2663 25.8497 26.5061 25.9545C26.5941 25.9929 26.661 26.0669 26.6784 26.1767C26.6889 26.2433 26.7159 26.3071 26.7479 26.3713C26.9153 26.7079 27.2238 26.9147 27.471 27.1773C27.5309 27.2408 27.6123 27.2343 27.6831 27.1848C27.7231 27.157 27.7592 27.1225 27.7939 27.0878C27.9856 26.8958 27.983 26.9325 28.0855 27.1116C28.1159 27.1645 28.1618 27.2097 28.1969 27.2624C28.2681 27.3697 28.2933 27.4903 28.2628 27.6041C28.2226 27.7539 28.2402 27.8942 28.265 28.0396C28.282 28.1378 28.2847 28.2367 28.202 28.314C28.0656 28.4414 28.0558 28.5905 28.1292 28.7522C28.1452 28.7875 28.1499 28.8238 28.1284 28.8517C28.0517 28.9505 28.0525 29.0908 27.9487 29.1764C27.9188 29.2012 27.8884 29.2459 27.8872 29.2822C27.8784 29.5721 27.8265 29.8689 28.0371 30.1234C28.088 30.185 28.1335 30.2163 28.2102 30.2137C28.2872 30.211 28.3711 30.2026 28.4324 30.2568C28.5936 30.3997 28.7752 30.5314 28.8123 30.7652C28.8367 30.9189 28.9099 31.0333 29.0316 31.13C29.1351 31.2124 29.1831 31.2253 29.3019 31.1505C29.3374 31.1281 29.3739 31.1074 29.4098 31.0856C29.4701 31.0489 29.5312 31.002 29.601 31.0608C29.6633 31.1135 29.6594 31.1864 29.6389 31.2557C29.6045 31.3726 29.6051 31.492 29.6096 31.611C29.6131 31.7076 29.5823 31.7861 29.5247 31.8629C29.3618 32.0788 29.4114 32.2825 29.6527 32.4126C29.7954 32.4895 29.842 32.612 29.7813 32.7619C29.7657 32.8003 29.7427 32.8372 29.7167 32.8696C29.642 32.9619 29.6441 33.0446 29.7329 33.1274C29.8486 33.2357 29.9413 33.3701 30.1037 33.4222C30.147 33.4361 30.1878 33.4757 30.2163 33.5137C30.2732 33.5894 30.3486 33.6394 30.4299 33.6792C30.5406 33.7334 30.643 33.7947 30.7759 33.8129C31.0139 33.846 31.1109 34.0482 31.1671 34.2527C31.258 34.5826 31.203 34.9227 31.2034 35.258C31.2034 35.3233 31.1644 35.3901 31.1203 35.4478C30.9724 35.641 30.9773 35.7737 31.1453 35.9444C31.2865 36.0877 31.422 36.2414 31.6319 36.291C31.6723 36.3005 31.7152 36.3222 31.7041 36.3762C31.6963 36.4149 31.6594 36.4297 31.6253 36.4373C31.5845 36.4465 31.542 36.4471 31.5008 36.4541C31.3595 36.4785 31.2194 36.4174 31.0834 36.4352C30.9345 36.4549 30.8557 36.3883 30.7983 36.2758C30.7049 36.0935 30.5482 36.041 30.3616 36.0572C30.257 36.0664 30.1567 36.1009 30.084 36.1876C29.9919 36.2978 29.889 36.298 29.7667 36.2315C29.6529 36.1694 29.5546 36.0935 29.4812 35.9885C29.3438 35.7913 29.2061 35.7987 29.0391 35.9335C28.9522 36.0037 28.8771 36.0084 28.7985 35.93C28.7333 35.865 28.6648 35.8777 28.5862 35.907C28.4394 35.9616 28.4236 35.9557 28.3953 35.7983C28.3694 35.6547 28.2658 35.5667 28.1778 35.4732C28.0925 35.3827 27.9225 35.4022 27.7881 35.5046C27.6698 35.595 27.551 35.6711 27.3957 35.6769C27.3407 35.6791 27.2913 35.7052 27.2501 35.7509C27.1658 35.8445 27.0819 35.9411 26.9832 36.018C26.896 36.0859 26.8729 36.1747 26.8507 36.2691C26.8171 36.4127 26.8577 36.547 26.9094 36.6783C26.9243 36.7162 26.9674 36.7521 26.9397 36.793C26.8431 36.9349 26.8942 37.0933 26.8819 37.2444C26.8778 37.2937 26.878 37.3454 26.9204 37.3804C27.0058 37.451 27.0579 37.5544 27.1672 37.6038C27.2646 37.6477 27.2726 37.7035 27.2049 37.7835C27.1422 37.8575 27.0731 37.9277 26.9992 37.9909C26.8388 38.1281 26.8503 38.2998 26.917 38.4663C26.9492 38.5472 26.9377 38.5894 26.8927 38.6526C26.8222 38.7523 26.734 38.8095 26.613 38.8138C26.493 38.8181 26.3777 38.8446 26.261 38.8708C26.1748 38.8901 26.1102 38.9467 26.093 39.0114C26.0616 39.1301 26.0193 39.2505 26.0503 39.3824C26.0983 39.5865 26.0651 39.6515 25.8874 39.7631C25.8224 39.8041 25.7305 39.8302 25.7039 39.8981C25.6331 40.0778 25.4573 40.1381 25.3236 40.2324C25.2237 40.3028 25.1195 40.3652 25.0319 40.4536C24.8594 40.6273 24.8296 40.8035 24.9574 41.0117C25.0532 41.1678 25.0321 41.3194 24.9693 41.4753C24.9552 41.5106 24.9236 41.5415 24.8885 41.5192C24.6936 41.3955 24.4783 41.4611 24.2721 41.4492C24.0898 41.4388 23.9312 41.5118 23.788 41.6197C23.6418 41.7298 23.6044 42.0392 23.7339 42.1628C23.8307 42.2556 23.9019 42.3481 23.8904 42.4888C23.8885 42.5126 23.9066 42.5423 23.9234 42.5626C24.0539 42.7195 24.1168 42.9433 24.3566 42.9936C24.3921 43.0012 24.4262 43.0428 24.4493 43.0765C24.4947 43.1425 24.5562 43.154 24.6303 43.161C24.755 43.1729 24.8899 43.1737 24.9898 43.2607C25.092 43.3497 25.2101 43.4075 25.3266 43.4701C25.5469 43.5882 25.7794 43.6366 26.03 43.5989C26.1545 43.58 26.2099 43.5115 26.2341 43.3944C26.3055 43.0494 26.3112 43.0086 26.6216 43.2553C26.7974 43.3952 26.9112 43.3716 26.9924 43.1538C27.0273 43.0605 27.0833 42.9956 27.1742 42.9671C27.2361 42.9476 27.2862 42.9136 27.3399 42.881C27.4474 42.8157 27.5549 42.7454 27.6905 42.7538C27.7344 42.7565 27.7655 42.736 27.7994 42.7046C28.0125 42.5079 28.2603 42.3998 28.5567 42.4158C28.69 42.4231 28.824 42.4199 28.9573 42.4164C29.1776 42.4108 29.331 42.5876 29.5355 42.6254C29.5567 42.6293 29.5731 42.6652 29.5889 42.688C29.6369 42.7571 29.6968 42.8215 29.7279 42.8976C29.8059 43.089 29.923 43.2777 29.8221 43.499C29.8108 43.5238 29.8079 43.5534 29.8051 43.5811C29.7895 43.7279 29.8758 43.8085 30.0186 43.7765C30.1887 43.7382 30.2986 43.6217 30.3679 43.4715C30.4204 43.3581 30.444 43.2315 30.4939 43.1165C30.6381 42.7848 30.6245 42.4695 30.4188 42.1663C30.3724 42.098 30.3214 42.0634 30.2319 42.0582C30.0018 42.0453 29.9874 42.0252 29.9628 41.8008C29.9583 41.7594 29.9558 41.7149 29.9659 41.6751C29.9893 41.5801 29.9766 41.498 29.9109 41.4221C29.8443 41.3446 29.8506 41.2533 29.8814 41.1635C29.8961 41.12 29.9347 41.0825 29.9768 41.1118C30.091 41.1914 30.2307 41.1828 30.3538 41.2361C30.6436 41.3618 30.9521 41.1713 30.9689 40.8618C30.9745 40.7627 30.9983 40.6812 31.0762 40.623C31.1603 40.5602 31.1989 40.4792 31.221 40.3777C31.2442 40.2704 31.3051 40.1857 31.4342 40.1807C31.4904 40.1785 31.548 40.166 31.5898 40.125C31.6801 40.0372 31.7531 40.0603 31.8446 40.1344C31.9697 40.2357 32.0758 40.2169 32.1917 40.1022C32.5094 39.7875 32.8206 39.4659 33.1482 39.1619C33.3619 38.9638 33.4421 38.7312 33.4175 38.4508C33.4152 38.4229 33.4138 38.3948 33.4103 38.3671C33.3984 38.2702 33.4288 38.2173 33.5377 38.2333C33.6981 38.2571 33.8234 38.1874 33.9315 38.0772C34.0435 37.9634 34.1627 37.858 34.1992 37.6879C34.2148 37.6161 34.2548 37.5437 34.3153 37.4908C34.376 37.4375 34.4055 37.3644 34.4267 37.291C34.502 37.0299 34.6455 36.8157 34.8537 36.643C34.8697 36.6299 34.882 36.612 34.8985 36.5993C34.9403 36.5667 34.9618 36.5234 34.9627 36.4721C34.9651 36.306 35.0039 36.1437 34.9813 35.9733C34.9331 35.6084 34.9594 35.5875 35.3231 35.5862C35.4336 35.5858 35.5376 35.5916 35.634 35.5011C35.7198 35.4207 35.841 35.385 35.9678 35.3987C36.0551 35.4084 36.1273 35.3815 36.1989 35.3239C36.3577 35.1967 36.5243 35.178 36.6927 35.3171C36.8438 35.4422 37.0278 35.3846 37.1991 35.4C37.3093 35.4098 37.3585 35.3267 37.4239 35.266C37.4813 35.2127 37.5357 35.1881 37.6032 35.2601C37.674 35.3352 37.7737 35.3233 37.8625 35.3116C38.0208 35.2909 38.1814 35.2699 38.3334 35.2242C38.4832 35.1791 38.6103 35.1994 38.7301 35.288C38.8093 35.3466 38.8873 35.3959 38.9888 35.415C39.0969 35.4355 39.1104 35.4751 39.0628 35.5778C39.015 35.6816 38.9896 35.7891 38.9855 35.9019C38.9771 36.1452 39.0021 36.1731 39.2487 36.2024C39.2975 36.2084 39.3496 36.2061 39.3941 36.2233C39.509 36.2676 39.6384 36.2734 39.7336 36.3729C39.7933 36.435 39.8306 36.4957 39.8048 36.5768C39.7804 36.6535 39.7082 36.6836 39.6366 36.6787C39.4854 36.6687 39.3486 36.7023 39.2146 36.7696C39.1527 36.801 39.0817 36.8153 39.0099 36.812C38.9111 36.8077 38.8319 36.8299 38.7947 36.9378C38.7568 37.0483 38.8066 37.122 38.8758 37.1993C38.9945 37.3322 39.1279 37.411 39.3156 37.3835C39.412 37.3696 39.5127 37.3737 39.6103 37.3829C39.8144 37.4024 40.0183 37.4498 40.1666 37.5952C40.2971 37.7234 40.4333 37.802 40.6152 37.8276C40.7592 37.8479 40.9163 37.8936 40.9865 38.0354C41.1057 38.2758 41.3134 38.3679 41.5522 38.4091C41.8584 38.4618 42.1696 38.4466 42.4767 38.4235C42.6674 38.4089 42.8701 38.4067 43.0348 38.2731C43.0857 38.2319 43.1554 38.2428 43.2188 38.2428C43.4367 38.2428 43.6545 38.2434 43.8723 38.2426C44.0282 38.2417 44.1942 38.2327 44.3168 38.1416C44.442 38.0487 44.5667 38.0278 44.7094 38.0313C44.7862 38.0331 44.8631 38.0366 44.9384 38.0085C45.0465 37.9679 45.1418 37.9851 45.2251 38.0739C45.2723 38.1242 45.3267 38.1761 45.403 38.1775C45.5072 38.1794 45.5554 38.2333 45.6064 38.3238C45.6696 38.4356 45.7631 38.5593 45.8981 38.5726C46.0704 38.5898 46.2659 38.636 46.3945 38.4438C46.4191 38.4071 46.4747 38.3898 46.518 38.3671C46.6483 38.2979 46.6558 38.3033 46.7069 38.4425C46.7748 38.6274 46.7416 38.8185 46.7424 39.0066C46.743 39.1576 46.7609 39.2874 46.934 39.3422C46.9051 39.3871 46.8885 39.3968 46.8655 39.396C46.5849 39.3865 46.3114 39.4035 46.0731 39.5816C46.0243 39.6181 45.9605 39.638 45.9004 39.6546C45.8505 39.6684 45.8138 39.6926 45.7767 39.7276C45.5537 39.9379 45.276 40.0333 44.9806 40.0505C44.723 40.0655 44.5328 40.1869 44.3568 40.3508C44.157 40.5364 43.9747 40.7399 43.7302 40.8753C43.5476 40.9764 43.385 41.1104 43.2375 41.2603C43.1837 41.3151 43.1407 41.3959 43.0756 41.4217C42.8246 41.5208 42.6135 41.6816 42.3994 41.8369C42.1895 41.9891 42.0187 42.1555 41.9657 42.4437C41.8948 42.8307 42.2867 43.2125 42.672 43.1909C42.7647 43.1856 42.8711 43.1794 42.9487 43.1066C43.075 42.9878 43.2254 42.9513 43.3944 42.964C43.4853 42.9708 43.5774 42.969 43.6684 42.9645C43.9413 42.9511 44.1394 43.1208 44.3414 43.258C44.4809 43.3528 44.573 43.5136 44.7357 43.5886C44.7757 43.6071 44.7847 43.6528 44.8054 43.6896C45.0243 44.0783 45.4793 44.0955 45.74 43.8969C45.8503 43.8126 45.9512 43.8366 46.0538 43.8857C46.1968 43.9542 46.3326 44.0297 46.4411 44.1564C46.6378 44.3862 46.758 44.6444 46.7855 44.9435C46.7945 45.0413 46.782 45.1383 46.8706 45.2122C46.9165 45.2503 46.9241 45.3125 46.9042 45.3687C46.8558 45.5059 46.8076 45.6491 46.7108 45.7562C46.621 45.8556 46.5715 45.9619 46.5547 46.0891C46.5248 46.312 46.5159 46.5354 46.558 46.7578C46.5859 46.9053 46.5406 46.9824 46.3964 47.0203C46.3625 47.0292 46.3258 47.0271 46.2928 47.0376C46.006 47.1293 45.887 47.3001 45.9644 47.5426C45.9997 47.6529 46.046 47.7442 46.1246 47.8297C46.2224 47.9366 46.3492 47.9942 46.4641 48.073C46.5557 48.1358 46.646 48.1571 46.7379 48.0993C46.8175 48.049 46.8683 48.0812 46.9215 48.1329C47.0312 48.24 47.134 48.3557 47.2513 48.4537C47.4556 48.6246 47.6644 48.7766 47.9629 48.7477C48.1487 48.7298 48.3397 48.7274 48.5294 48.7333C48.6277 48.7364 48.7294 48.7124 48.8318 48.6718C49.0033 48.6039 49.1585 48.5169 49.313 48.4205C49.5122 48.2962 49.6845 48.1499 49.7817 47.9305C49.7993 47.8907 49.8354 47.8665 49.8584 47.833C49.9606 47.6841 50.123 47.6339 50.2767 47.5692C50.412 47.5122 50.4894 47.4234 50.4871 47.2665C50.484 47.0743 50.5737 46.9167 50.7058 46.7834C50.8141 46.6741 50.9371 46.5777 51.0342 46.4597C51.1568 46.3108 51.3088 46.2234 51.4922 46.1877C51.5929 46.1683 51.667 46.1248 51.7379 46.0468C51.8983 45.8706 52.0893 45.7506 52.3472 45.7888C52.4815 45.8087 52.6235 45.7869 52.7375 45.7274C52.8378 45.6749 52.8983 45.6922 52.9808 45.7414C53.0364 45.7746 53.0811 45.8175 53.1276 45.8593C53.2536 45.9726 53.3867 45.9713 53.5135 45.8628C53.6314 45.7619 53.6995 45.6477 53.6985 45.4842C53.6969 45.2526 53.8486 45.0883 54.039 45.0224C54.225 44.958 54.3781 44.8547 54.5237 44.7427C54.7054 44.6028 54.8498 44.4212 54.8726 44.1743C54.8829 44.0647 54.9329 43.9665 55.0111 43.8984C55.2035 43.7306 55.5569 43.7232 55.7795 43.8643C56.04 44.0295 56.2761 44.2231 56.4902 44.4452C56.6198 44.5794 56.7435 44.5888 56.899 44.4881C56.9657 44.445 57.0315 44.4132 57.1134 44.4149C57.1852 44.4163 57.2578 44.3915 57.3103 44.3494C57.4926 44.2034 57.6668 44.2046 57.8705 44.3172C58.0939 44.4405 58.3459 44.3544 58.4768 44.1359C58.5209 44.0623 58.5827 44.0305 58.6637 44.0194C58.7886 44.0024 58.9139 43.9853 59.0374 43.9605C59.1822 43.9316 59.309 43.7856 59.2938 43.6473C59.2825 43.5454 59.2756 43.4366 59.2148 43.3454C58.9993 43.0217 59.1004 42.6475 59.4758 42.449C59.6866 42.3374 59.7547 42.1278 59.8727 41.9512C59.8893 41.9261 59.8907 41.8806 59.8813 41.85C59.82 41.6504 59.7153 41.4878 59.5002 41.4226C59.4403 41.4043 59.3724 41.3856 59.3291 41.3448C59.2425 41.2632 59.1439 41.2589 59.0368 41.2595C58.6727 41.2617 58.3084 41.2656 57.9445 41.2578C57.7915 41.2546 57.6598 41.2864 57.5281 41.3668C57.41 41.4388 57.3193 41.521 57.2535 41.6449C57.1312 41.8753 56.9626 41.9077 56.7542 41.7551C56.7263 41.7348 56.707 41.7028 56.6795 41.6816C56.6061 41.6252 56.5587 41.545 56.4943 41.4814C56.3924 41.3805 56.2004 41.3852 56.1716 41.5011C56.1204 41.7093 55.9563 41.8424 55.8732 42.0264C55.8162 42.1524 55.7247 42.2445 55.5731 42.257C55.5335 42.2603 55.4958 42.2861 55.4568 42.3007C55.3257 42.3499 55.1981 42.4147 55.063 42.4441C54.8343 42.4939 54.6558 42.3743 54.5009 42.2248C54.2999 42.0309 54.1085 41.8277 53.9104 41.6312C53.757 41.4792 53.6866 41.2613 53.5096 41.1284C53.4993 41.1208 53.493 41.1048 53.4901 41.0917C53.4513 40.9151 53.2749 40.8213 53.2257 40.6513C52.8975 40.3446 52.7125 39.9449 52.5191 39.5525C52.3312 39.1718 52.2282 38.7588 52.0873 38.3603C52.078 38.3344 52.0795 38.2988 52.062 38.283C51.9129 38.1461 51.9312 37.9675 51.9322 37.7921C51.934 37.445 52.0934 37.2549 52.4417 37.1852C52.4965 37.1743 52.5467 37.1573 52.5966 37.1259C52.6852 37.0705 52.7791 37.0153 52.8786 36.988C52.9765 36.961 53.0368 36.9066 53.0776 36.8237C53.1404 36.6961 53.2505 36.6051 53.3283 36.4884C53.3931 36.3911 53.4573 36.3917 53.5609 36.4627C53.5957 36.4865 53.6281 36.5138 53.6605 36.5405C53.7153 36.5856 53.797 36.6053 53.8353 36.5626C53.9598 36.4244 54.1459 36.3827 54.2757 36.2508C54.4611 36.0623 54.6277 35.8496 54.8521 35.7046C55.0304 35.5891 55.1828 35.4494 55.3202 35.2911C55.3698 35.234 55.4435 35.1996 55.4658 35.1165C55.5577 34.7758 55.8316 34.623 56.1222 34.4884C56.3128 34.4002 56.5204 34.3631 56.7185 34.2991C56.9597 34.2211 57.2135 34.2263 57.4526 34.3586C57.658 34.4722 57.7706 34.4449 57.932 34.2808C58.0592 34.1514 58.1876 34.0232 58.3168 33.8958C58.3466 33.8665 58.3775 33.8337 58.4145 33.8173C58.6028 33.7344 58.7636 33.6047 58.9646 33.5373C59.1904 33.4612 59.4017 33.43 59.6138 33.5424C59.733 33.6056 59.8161 33.5902 59.9123 33.4991C60.2025 33.224 60.4448 32.8971 60.8097 32.7014C60.9348 32.6343 61.0704 32.5668 61.1653 32.4489C61.1803 32.43 61.2148 32.4183 61.2404 32.4179C61.4111 32.415 61.5844 32.3588 61.7444 32.4868C61.8396 32.5631 61.9746 32.5414 62.0308 32.4655C62.1013 32.3701 62.169 32.2717 62.2281 32.1687C62.362 31.9353 62.4816 31.6903 62.6902 31.5119C62.8043 31.4145 62.9005 31.2701 63.0699 31.2717C63.3175 31.2737 63.5585 31.2266 63.8024 31.2038C63.9197 31.1929 64.036 31.2112 64.1318 31.1113C64.1739 31.0674 64.2492 31.0731 64.3134 31.0742C64.4188 31.076 64.5252 31.0832 64.6297 31.0727C64.8582 31.05 65.0916 31.1014 65.3168 31.0225C65.5386 30.9445 65.6731 30.7175 65.6173 30.4953C65.6058 30.4492 65.5726 30.409 65.5529 30.3646C65.4983 30.2424 65.4729 30.1286 65.596 30.0219C65.6577 29.9686 65.7004 29.8933 65.7605 29.8332C65.8719 29.7224 65.8606 29.5821 65.739 29.474C65.6743 29.4166 65.6343 29.3429 65.5843 29.2759C65.5523 29.233 65.5357 29.1875 65.5714 29.1411C65.6374 29.0547 65.6245 28.955 65.6247 28.8574C65.6253 28.6115 65.6253 28.3655 65.6249 28.1196C65.6245 27.9374 65.6977 27.7776 65.8456 27.6882C66.0386 27.5713 66.2312 27.4359 66.4858 27.4681C66.6425 27.4878 66.7785 27.4269 66.9008 27.3077C66.9986 27.2121 67.0671 27.0737 67.2107 27.032C67.4054 26.9754 67.4653 26.8265 67.4784 26.6499C67.488 26.517 67.4722 26.3822 67.4827 26.2495C67.5055 25.9586 67.5479 25.892 67.841 25.8975C68.5093 25.9098 69.1725 25.8271 69.8391 25.8278C70.2258 25.8282 70.6124 25.8286 70.9989 25.8274C71.2231 25.8267 71.4247 25.6423 71.4448 25.4208C71.4733 25.1053 71.4545 24.789 71.4584 24.4731C71.4602 24.3193 71.4379 24.1622 71.5642 24.0379C71.581 24.0215 71.5831 23.9858 71.5843 23.9587C71.5987 23.6397 71.716 23.3587 71.9176 23.1177C72.0298 22.9835 72.0013 22.8373 71.9814 22.6982C71.9646 22.5809 71.844 22.553 71.7363 22.5354C71.6571 22.5222 71.6036 22.4716 71.6048 22.3942C71.6083 22.1704 71.5291 21.9748 71.4208 21.786C71.4077 21.7631 71.4018 21.7307 71.4052 21.7044C71.4284 21.528 71.3328 21.3908 71.2465 21.2579C71.1265 21.0732 70.9843 20.9091 70.723 20.953C70.6695 20.9619 70.6108 20.9489 70.556 20.9383C70.4383 20.9149 70.3764 20.8402 70.4139 20.7305C70.4518 20.6187 70.4475 20.5092 70.4455 20.3984C70.4414 20.1703 70.604 20.0206 70.6992 19.8394C70.7273 19.7865 70.7864 19.7748 70.8399 19.7562C71.018 19.694 71.2016 19.7098 71.3831 19.7209C71.458 19.7256 71.5287 19.7235 71.5818 19.6768C71.7019 19.5711 71.7997 19.4557 71.8309 19.2965H1.28163C1.20266 19.3947 1.14584 19.5041 1.17887 19.654Z" fill="#FFD500"/>
<path d="M70.6987 19.8395C70.7266 19.7864 70.7859 19.7747 70.8394 19.756C71.0175 19.6938 71.2008 19.7096 71.3824 19.7209C71.4572 19.7254 71.528 19.7234 71.5811 19.6766C71.7247 19.5505 71.838 19.411 71.8412 19.1987C71.8457 18.9218 71.6363 18.8978 71.4769 19.0013C71.342 19.0891 71.2322 19.0766 71.1096 19.0024C71.0259 18.9519 70.9235 18.9326 70.8484 18.9798C70.7221 19.059 70.6421 18.987 70.5457 18.9335C70.4425 18.8762 70.3976 18.7681 70.3215 18.6877C70.2624 18.625 70.3034 18.5207 70.3896 18.4797C70.5582 18.3993 70.7254 18.3164 70.9159 18.2931C71.0868 18.2721 71.199 18.1784 71.2209 17.9983C71.2314 17.9138 71.2466 17.8274 71.3003 17.7622C71.4521 17.5776 71.5534 17.3596 71.6993 17.1719C71.8441 16.9854 71.8236 16.7606 71.8172 16.5538C71.8096 16.2974 71.6837 16.0765 71.486 15.8999C71.409 15.8314 71.345 15.7438 71.2905 15.6556C71.1754 15.4694 71.183 15.446 71.3368 15.2991C71.3973 15.2413 71.449 15.1723 71.5155 15.1231C71.5762 15.0782 71.576 15.0226 71.5869 14.9596C71.6179 14.7779 71.4855 14.685 71.3744 14.6039C71.2308 14.4991 70.8197 14.5791 70.687 14.7098C70.5974 14.798 70.509 14.8876 70.4175 14.974C70.318 15.0677 70.2181 15.0907 70.1211 15.0195C70.0253 14.9496 69.9266 14.9237 69.8107 14.9131C69.6559 14.8991 69.4487 14.6817 69.4196 14.5237C69.3869 14.3467 69.2661 14.2175 69.1145 14.1841C68.9 14.1365 68.675 14.0866 68.4477 14.1447C68.3741 14.1635 68.2941 14.1558 68.218 14.1672C68.0873 14.1871 68.0044 14.1164 67.9357 14.0228C67.8986 13.9724 67.8541 13.9164 67.8455 13.8579C67.8153 13.6548 67.6489 13.5617 67.5238 13.4356C67.4531 13.3642 67.3669 13.3687 67.2986 13.4354C67.1999 13.5322 67.075 13.6079 67.0262 13.7486C66.9954 13.838 66.9261 13.8762 66.8377 13.8922C66.6972 13.9176 66.5749 13.8868 66.4795 13.7775C66.3751 13.6575 66.2574 13.5863 66.0898 13.5601C65.9228 13.5338 65.744 13.4805 65.6312 13.3289C65.5419 13.2089 65.4199 13.179 65.282 13.1788C65.0712 13.1788 64.8603 13.1749 64.6494 13.1798C64.5438 13.1822 64.4583 13.1523 64.3859 13.0754C64.3143 12.9993 64.2394 12.926 64.1641 12.8534C64.0121 12.7066 63.7625 12.6733 63.5793 12.7792C63.5108 12.8186 63.4768 12.8895 63.4382 12.9572C63.3802 13.0588 63.4337 13.1455 63.4583 13.2385C63.493 13.3689 63.4458 13.493 63.3453 13.5484C63.2353 13.6089 63.0074 13.582 62.9123 13.494C62.8255 13.4138 62.7305 13.3388 62.6591 13.2462C62.5096 13.0526 62.325 12.9375 62.078 12.9244C61.9646 12.9185 61.8744 12.8733 61.8424 12.7515C61.8231 12.6791 61.7622 12.6354 61.7107 12.5923C61.5443 12.4537 61.4725 12.2481 61.3412 12.085C61.3037 12.0385 61.2967 11.9712 61.2924 11.9056C61.2719 11.5964 61.1622 11.4631 60.867 11.3778C60.81 11.3612 60.7675 11.331 60.7363 11.2797C60.6996 11.2194 60.6699 11.1581 60.6494 11.0896C60.5482 10.7511 60.0568 10.7064 59.8758 10.8931C59.6693 11.1062 59.474 11.345 59.1559 11.4073C59.1386 11.4108 59.1257 11.4354 59.1101 11.4498C59.0353 11.5187 58.9661 11.5087 58.8851 11.4504C58.7501 11.3532 58.6365 11.3556 58.5042 11.4486C58.4345 11.4974 58.3659 11.5421 58.279 11.5546C58.2148 11.5638 58.1701 11.6028 58.1227 11.6502C58.0051 11.7681 57.8903 11.8961 57.728 11.9544C57.5504 12.018 57.4148 12.1246 57.325 12.291C57.2813 12.3722 57.2154 12.3696 57.1485 12.3232C57.1079 12.2949 57.0872 12.251 57.0681 12.2034C56.9529 11.9158 56.7254 11.825 56.4485 11.9534C56.3724 11.9884 56.2844 11.9905 56.2152 12.0459C56.1851 12.0701 56.1474 12.0547 56.1186 12.0319C56.0247 11.9577 55.9365 11.8793 55.8903 11.7632C55.7447 11.3975 55.4481 11.1969 55.0557 11.1967C54.8729 11.1965 54.6902 11.1961 54.5076 11.1973C54.4454 11.1979 54.3882 11.1991 54.3302 11.2422C54.162 11.3661 53.9821 11.4734 53.8498 11.6416C53.812 11.6896 53.7577 11.729 53.7033 11.7583C53.6196 11.8034 53.5302 11.7751 53.4886 11.6914C53.3696 11.4518 53.2268 11.2358 52.986 11.0972C52.9154 11.0568 52.8432 10.9961 52.8053 10.9263C52.6915 10.7181 52.6884 10.4865 52.707 10.2564C52.7099 10.2215 52.7528 10.1869 52.7825 10.1577C52.9518 9.99281 52.9273 9.78563 52.8457 9.61251C52.7394 9.3877 52.5836 9.18483 52.4365 8.98135C52.3848 8.90997 52.3442 8.84289 52.3403 8.75633C52.3337 8.61377 52.2878 8.4827 52.2139 8.36352C52.1622 8.28004 52.1702 8.22014 52.2254 8.13645C52.3553 7.93933 52.2755 7.78057 52.0482 7.75882C51.9994 7.75431 51.9493 7.76088 51.9007 7.75534C51.6018 7.72108 51.48 7.59657 51.4681 7.3172C51.4578 7.07515 51.2751 6.84747 51.0392 6.79578C50.8197 6.74778 50.6068 6.77527 50.4169 6.89957C50.1787 7.05546 49.9172 6.99331 49.662 6.99331C49.6251 6.99331 49.5994 6.96193 49.5785 6.93403C49.4431 6.75209 49.2329 6.73855 49.0378 6.70122C48.8079 6.65712 48.5843 6.56543 48.3423 6.59681C48.3008 6.60214 48.259 6.57855 48.2303 6.54635C48.197 6.50922 48.1601 6.45835 48.2044 6.41651C48.3408 6.28769 48.2664 6.20605 48.157 6.1158C48.1043 6.07252 48.068 6.00996 48.0106 5.96709C47.932 5.90863 47.9014 5.82781 47.9096 5.72791C47.9162 5.6512 47.9193 5.57592 47.9375 5.49941C47.989 5.28485 47.9273 5.07932 47.826 4.8984C47.7568 4.77492 47.6922 4.64097 47.5765 4.5421C47.5017 4.47831 47.5187 4.40426 47.6036 4.35278C47.7455 4.26683 47.8836 4.17309 48.0627 4.17371C48.1453 4.17412 48.229 4.14971 48.3107 4.12981C48.4134 4.10458 48.4793 4.03689 48.5006 3.93289C48.5205 3.8369 48.5353 3.74008 48.5511 3.64326C48.5675 3.54152 48.5548 3.4367 48.4869 3.36409C48.373 3.24245 48.2733 3.10523 48.125 3.01743C47.9624 2.92123 47.818 2.79836 47.6541 2.70134C47.3903 2.54504 47.3076 2.25643 47.1985 1.9947C47.137 1.84721 47.1335 1.69583 47.2572 1.5625C47.3136 1.50158 47.3216 1.40497 47.2668 1.34938C47.1468 1.22754 47.0551 1.07103 46.8697 1.02139C46.6972 0.975446 46.5762 0.860783 46.522 0.687455C46.4443 0.439462 46.2806 0.25116 46.104 0.0712685C46.058 0.0245007 46.001 -0.00175487 45.9349 9.12281e-05C45.8375 0.00255269 45.7419 -0.00134463 45.6433 0.0247058C45.4904 0.0651149 45.375 0.169727 45.2361 0.23311C45.0548 0.315774 45.0548 0.327876 44.9241 0.186547C44.8269 0.0811144 44.7182 0.0312697 44.5719 0.0386541C44.3756 0.0487051 44.1775 0.0534229 43.982 0.0378336C43.7678 0.0208085 43.5933 0.0640892 43.4388 0.226956C43.255 0.421206 42.9992 0.522537 42.7888 0.683762C42.7055 0.747555 42.6196 0.771144 42.5195 0.783246C42.1545 0.827553 41.8253 0.720479 41.5211 0.537716C41.3094 0.410335 41.0793 0.413412 40.8537 0.410745C40.627 0.408284 40.5932 0.459359 40.5761 0.689916C40.5642 0.852373 40.5478 1.01175 40.4516 1.15021C40.4264 1.18652 40.4184 1.22651 40.4186 1.26959C40.4192 1.39677 40.3521 1.51143 40.356 1.64148C40.3581 1.70876 40.3201 1.78875 40.2479 1.80968C40.0756 1.85952 39.9677 2.00495 39.8133 2.08577C39.6422 2.1752 39.4824 2.18525 39.3085 2.15592C39.2324 2.143 39.1645 2.10895 39.1395 2.01829C39.1136 1.92454 39.0451 1.85706 38.9499 1.84106C38.7505 1.80721 38.5553 1.76106 38.3469 1.76947C38.1333 1.77809 37.9093 1.80619 37.7034 1.71491C37.409 1.58466 37.1293 1.58876 36.8634 1.7826C36.79 1.83614 36.7186 1.89255 36.6491 1.95101C36.5994 1.99264 36.5479 2.03757 36.4807 2.02095C36.2729 1.96926 36.0446 2.00516 35.855 1.8749C35.7679 1.81501 35.686 1.82527 35.605 1.89172C35.5564 1.93172 35.5051 1.97193 35.4485 1.99757C35.3035 2.06341 35.2358 2.18279 35.2366 2.32925C35.2374 2.46504 35.1724 2.54483 35.0828 2.63221C34.9786 2.73375 34.844 2.81313 34.7866 2.95405C34.7398 3.06892 34.653 3.14543 34.5751 3.23445C34.4071 3.42624 34.2116 3.60757 34.2428 3.90294C34.2483 3.95443 34.2161 4.01022 34.1997 4.06355C34.1501 4.22601 34.0619 4.37042 33.9599 4.5017C33.7919 4.71871 33.7835 4.9784 33.7997 5.21983C33.8202 5.52812 33.8861 5.83294 34.0065 6.13077C34.1302 6.43661 34.0557 6.58696 33.8217 6.74922C33.7774 6.77978 33.7339 6.79291 33.6838 6.78265C33.5224 6.74901 33.3632 6.56317 33.3638 6.39107C33.3642 6.29118 33.3333 6.21939 33.2615 6.15211C33.1039 6.00421 32.9433 5.85755 32.802 5.69468C32.7394 5.62248 32.6734 5.58494 32.5901 5.58043C32.2615 5.56259 31.9335 5.54269 31.6043 5.59458C31.4892 5.61284 31.4205 5.6914 31.3282 5.73755C31.1592 5.82186 31.1145 5.82391 31.0012 5.68607C30.9381 5.60874 30.8603 5.55028 30.7893 5.48361C30.6876 5.38823 30.5453 5.39541 30.4351 5.49161C30.2923 5.61633 30.1405 5.72791 29.9869 5.83888C29.8569 5.93283 29.6967 5.97509 29.5855 6.10288C29.527 6.17016 29.3365 6.12872 29.3061 6.04811C29.2645 5.93796 29.1884 5.83376 29.1894 5.71397C29.1921 5.45285 29.1863 5.20649 29.0116 4.97963C28.949 4.8984 28.9094 4.79092 28.8276 4.71379C28.6563 4.55216 28.4142 4.54087 28.222 4.68672C28.0547 4.81348 27.8789 4.92691 27.6725 4.98168C27.4541 5.03973 27.3082 5.16957 27.2481 5.39254C27.2213 5.49223 27.1476 5.55643 27.0629 5.61264C26.9462 5.68997 26.9259 5.68504 26.8701 5.55459C26.8325 5.467 26.8449 5.37531 26.836 5.28506C26.8266 5.18988 26.8389 5.08198 26.746 5.01655C26.5009 4.84466 26.2428 4.74866 25.944 4.8824C25.7801 4.95563 25.5948 4.84774 25.6071 4.66825C25.6192 4.49329 25.5323 4.39565 25.4209 4.29329C25.3649 4.24181 25.3161 4.22601 25.2562 4.27586C25.1149 4.39339 24.911 4.44467 24.8564 4.65513C24.8502 4.67872 24.8228 4.69923 24.8012 4.71584C24.6187 4.85697 24.3795 4.84015 24.2191 4.67605C24.0347 4.48775 23.9254 4.46929 23.6962 4.58846C23.6714 4.60138 23.6425 4.61061 23.6232 4.62949C23.5563 4.69595 23.4946 4.69102 23.4195 4.6381C23.3627 4.5979 23.2928 4.57287 23.2515 4.51441C23.2023 4.44447 23.1344 4.42047 23.0552 4.41144C22.9648 4.40078 22.8743 4.38908 22.7845 4.37513C22.6401 4.35278 22.5086 4.37185 22.3861 4.46252C22.2758 4.54416 22.1428 4.56631 22.0073 4.55359C21.918 4.54518 21.8288 4.50559 21.837 4.40488C21.8489 4.26006 21.7605 4.19668 21.6573 4.15401C21.5511 4.10991 21.5148 4.03258 21.4885 3.93351C21.4739 3.87792 21.4735 3.82295 21.4666 3.76756C21.4477 3.6207 21.3989 3.57229 21.2477 3.56695C21.0721 3.56101 20.8963 3.56203 20.7205 3.56613C20.613 3.56839 20.5074 3.55649 20.4116 3.5126C20.1331 3.38481 19.8527 3.25886 19.5848 3.11097C19.4867 3.05702 19.3983 3.02831 19.2916 3.03446C19.2354 3.03754 19.179 3.032 19.123 3.03548C18.9743 3.04471 18.8457 3.00615 18.7468 2.88882C18.6736 2.80185 18.5731 2.77313 18.466 2.76616C18.3821 2.76062 18.2982 2.77067 18.2141 2.77621C17.9979 2.79077 17.7869 2.7596 17.6416 2.5795C17.513 2.42012 17.3555 2.36535 17.1594 2.3832C17.0829 2.39017 17.0049 2.38443 16.9276 2.38381C16.8486 2.3832 16.7709 2.36679 16.7083 2.32043C16.5414 2.19633 16.3508 2.17274 16.152 2.17315C15.8146 2.17377 15.4774 2.17213 15.14 2.17356C14.8981 2.17459 14.6844 2.08392 14.5068 1.93542C14.4153 1.85891 14.3326 1.83224 14.2247 1.83532C14.1334 1.83819 14.042 1.8386 13.9507 1.83511C13.8432 1.83101 13.749 1.8466 13.6561 1.91572C13.5415 2.00085 13.3999 2.02444 13.2557 2.02341C12.9887 2.02157 12.7216 2.02403 12.4545 2.02259C12.3001 2.02177 12.1423 2.03593 11.992 2.00988C11.7253 1.96352 11.4589 1.97931 11.1932 1.9867C11.0654 1.99018 10.9143 1.98977 10.8199 2.09972C10.72 2.21561 10.6051 2.33786 10.5606 2.47776C10.4888 2.7036 10.3518 2.86893 10.19 3.02461C10.1252 3.08697 10.0778 3.17538 9.98854 3.20307C9.81726 3.2564 9.68558 3.37455 9.53728 3.4646C9.40046 3.54747 9.41502 3.5409 9.27041 3.45742C9.11678 3.3686 8.98447 3.22645 8.78653 3.22748C8.60397 3.2285 8.421 3.22953 8.23844 3.22727C8.0967 3.22543 8.00583 3.29168 7.93507 3.41311C7.86799 3.5288 7.82758 3.65639 7.78123 3.77741C7.73712 3.89248 7.7281 4.03566 7.80871 4.16078C7.98717 4.43811 8.01958 4.71523 7.80666 4.99583C7.72502 5.10332 7.74041 5.26003 7.83784 5.35705C7.91291 5.43192 7.95783 5.50966 7.9445 5.61715C7.91189 5.87909 8.06429 6.04195 8.26449 6.15785C8.42367 6.25015 8.48069 6.3722 8.49689 6.54779C8.51966 6.79475 8.5131 7.05362 8.6813 7.26633C8.70612 7.29771 8.72581 7.34263 8.72704 7.38202C8.73135 7.51473 8.7894 7.62283 8.8614 7.72847C8.91227 7.80334 8.95308 7.88498 9.0017 7.96149C9.03329 8.01113 9.02898 8.05133 8.98734 8.09235C8.94242 8.13666 8.90242 8.18609 8.83699 8.2023C8.79391 8.21276 8.75904 8.23614 8.74489 8.28024C8.70099 8.41788 8.66859 8.58424 8.76376 8.6831C8.94694 8.87325 8.93955 9.13048 9.05216 9.34237C9.12723 9.4837 9.08847 9.65682 9.14837 9.8084C9.1779 9.88327 9.12088 9.94337 9.05729 9.9805C8.88499 10.0804 8.74488 10.2043 8.6975 10.409C8.68971 10.4422 8.66817 10.4726 8.65135 10.5034C8.61238 10.5749 8.53238 10.5985 8.47433 10.6484C8.41998 10.6951 8.37341 10.6229 8.32152 10.6145C8.17014 10.5899 8.01855 10.5594 7.88604 10.6822C7.84748 10.7179 7.78738 10.7409 7.73425 10.7481C7.6282 10.7628 7.55723 10.8194 7.49344 10.899C7.32072 11.1144 7.12484 11.2943 6.87684 11.4344C6.67152 11.5507 6.46004 11.6826 6.31009 11.8828C6.27932 11.924 6.23686 11.971 6.17696 11.9804C6.07871 11.9958 6.02148 12.067 5.95708 12.1316C5.14807 12.9414 4.33743 13.7494 3.52987 14.5605C3.38546 14.7055 3.19429 14.8162 3.14937 15.0419C3.14609 15.0589 3.12167 15.0731 3.10526 15.0858C2.97932 15.1828 2.91614 15.3254 2.83122 15.4529C2.77276 15.5407 2.76456 15.6179 2.82978 15.7016C2.87778 15.7633 2.92558 15.8304 2.92065 15.91C2.90814 16.1079 2.9623 16.2993 2.96701 16.495C2.96886 16.5741 2.9744 16.6486 3.03491 16.7087C3.11039 16.7836 3.07429 16.8541 3.03634 16.9366C2.94547 17.1349 2.9186 17.3596 2.78794 17.5427C2.77789 17.5569 2.78281 17.5844 2.78568 17.6049C2.8144 17.8123 2.90301 17.9815 3.09603 18.0816C3.22485 18.1485 3.27818 18.2344 3.25767 18.3452C3.2468 18.4042 3.2228 18.4268 3.15654 18.4088C2.96393 18.3567 2.7584 18.3347 2.63266 18.1476C2.6181 18.1261 2.58918 18.113 2.56477 18.0992C2.38242 17.9958 2.27267 18.0143 2.11596 18.1591C1.97791 18.2867 1.90674 18.4666 1.75741 18.5876C1.6448 18.6789 1.56172 18.7999 1.53157 18.9531C1.51577 19.034 1.45711 19.0996 1.39865 19.1636C1.27332 19.3008 1.12974 19.4342 1.17835 19.6538C1.18491 19.6836 1.15907 19.7199 1.14922 19.7533C1.13835 19.7907 1.12604 19.8274 1.11292 19.8633H70.685C70.6895 19.8553 70.6944 19.8475 70.6987 19.8395Z" fill="#005BBB"/>
<path d="M7.44137 28.2761L7.83828 26.0271H11.966C13.3591 26.0271 14.6204 25.7274 15.7496 25.1274C16.8782 24.5279 17.8175 23.6986 18.5674 22.6403C19.3169 21.5819 19.8065 20.3739 20.0359 19.0154C20.1946 18.0454 20.1856 17.1367 20.0094 16.2902C19.833 15.4434 19.5069 14.6984 19.0306 14.0543C18.5543 13.4107 17.9366 12.9079 17.1783 12.5461C16.4198 12.1849 15.5287 12.0037 14.506 12.0037H10.2195L10.6165 9.75479H14.7441C16.0672 9.75479 17.2353 9.99745 18.2499 10.4824C19.264 10.9677 20.1021 11.6333 20.7636 12.48C21.4249 13.3266 21.8881 14.3101 22.1527 15.4301C22.4173 16.5505 22.4524 17.7453 22.2586 19.0154C22.0469 20.3385 21.6366 21.5645 21.0282 22.6933C20.4196 23.8223 19.6523 24.8011 18.7262 25.6302C17.8 26.4595 16.7459 27.1077 15.5644 27.5748C14.3823 28.0424 13.1124 28.2761 11.7543 28.2761H7.44137ZM11.6484 9.75479L8.44688 28.2761H6.2771L9.39947 9.75479H11.6484Z" fill="white"/>
<path d="M26.9423 10.0457C27.2244 9.76364 27.5595 9.62231 27.9478 9.62231C28.3533 9.62231 28.6973 9.76364 28.9796 10.0457C29.2616 10.3279 29.403 10.6721 29.403 11.0777C29.403 11.4657 29.2616 11.8011 28.9796 12.083C28.6973 12.3654 28.3533 12.5063 27.9478 12.5063C27.5595 12.5063 27.2244 12.3654 26.9423 12.083C26.6599 11.8011 26.5189 11.4657 26.5189 11.0777C26.5189 10.6721 26.6599 10.3279 26.9423 10.0457ZM28.1595 16.1048L26.0956 28.2759H24.0054L26.0162 16.1048H28.1595Z" fill="white"/>
<path d="M40.8994 20.0075C40.6785 19.346 40.3081 18.8168 39.7879 18.4199C39.2675 18.0229 38.6193 17.8246 37.8433 17.8246C37.3141 17.8246 36.7982 17.9349 36.2955 18.1552C35.7927 18.3762 35.3298 18.6845 34.9064 19.0814C34.483 19.4783 34.1257 19.9414 33.8348 20.4705C33.5438 20.9997 33.3452 21.573 33.2394 22.1904C33.1688 22.7725 33.1819 23.3194 33.2792 23.8308C33.3758 24.3425 33.5569 24.801 33.8215 25.2067C34.0861 25.6127 34.4168 25.9302 34.8137 26.1593C35.2106 26.3886 35.6735 26.5123 36.2028 26.5298C36.9966 26.5474 37.733 26.3667 38.4121 25.9872C39.0909 25.6081 39.6689 25.0875 40.1452 24.426C40.6215 23.7647 40.9212 23.0197 41.0449 22.1904C41.1679 21.3966 41.1197 20.669 40.8994 20.0075ZM41.9049 25.4184C41.2432 26.3886 40.4229 27.1513 39.4441 27.707C38.4651 28.2626 37.4023 28.5406 36.2557 28.5406C35.4442 28.5406 34.7608 28.364 34.2051 28.0114C33.6496 27.6587 33.2129 27.1825 32.8954 26.5825C32.5781 25.9831 32.3705 25.3039 32.2736 24.5452C32.1764 23.7869 32.1811 23.0019 32.287 22.1904C32.4101 21.3262 32.6396 20.5103 32.9748 19.7429C33.3097 18.9755 33.7331 18.3009 34.2449 17.7187C34.7562 17.1366 35.3515 16.6782 36.0309 16.3428C36.7096 16.008 37.4552 15.8402 38.2667 15.8402C39.4131 15.8402 40.3788 16.1313 41.164 16.7132C41.9484 17.2954 42.5133 18.0672 42.8573 19.0285C43.2013 19.9901 43.2938 21.044 43.1351 22.1904C42.9763 23.3723 42.5663 24.4484 41.9049 25.4184ZM29.1117 34.0969L32.2341 16.1048H34.2713L31.255 34.0704L29.1117 34.0969Z" fill="white"/>
<path d="M52.0258 16.1048L51.6554 18.0892H45.7021L46.0726 16.1048H52.0258ZM52.3565 9.63551C52.1713 9.52105 51.9637 9.46361 51.7348 9.46361C51.4172 9.46361 51.1436 9.57397 50.9145 9.79427C50.6852 10.0152 50.4999 10.3063 50.359 10.6675C50.2175 11.0293 50.1116 11.4307 50.0415 11.8713L47.2366 28.2759H45.12L47.9775 11.5803C48.1008 10.7692 48.339 10.0416 48.692 9.39756C49.0446 8.75369 49.503 8.25093 50.0679 7.8893C50.6322 7.52788 51.3024 7.35599 52.0788 7.37322C52.5901 7.39106 53.0221 7.50162 53.3753 7.70408C53.7279 7.90715 54.019 8.15842 54.2483 8.45811L52.8461 10.1516C52.7046 9.92247 52.5417 9.75058 52.3565 9.63551Z" fill="white"/>
<path d="M54.697 24.2939C54.9261 24.9554 55.3011 25.4937 55.8215 25.9078C56.3416 26.3226 56.9991 26.5298 57.7927 26.5298C58.6039 26.5298 59.3491 26.3359 60.0285 25.9476C60.7075 25.5597 61.272 25.0307 61.7218 24.3602C62.1716 23.69 62.4582 22.9668 62.5819 22.1904C62.6877 21.4323 62.6256 20.7264 62.3966 20.0738C62.1671 19.4213 61.788 18.883 61.2588 18.4596C60.7296 18.0363 60.0683 17.8246 59.2745 17.8246C58.4807 17.8246 57.7439 18.0231 57.0651 18.4201C56.3857 18.817 55.8215 19.346 55.3718 20.0077C54.922 20.669 54.635 21.3968 54.5118 22.1904C54.4059 22.9313 54.4674 23.6324 54.697 24.2939ZM53.6519 18.9889C54.3134 18.0363 55.1509 17.2736 56.1654 16.7001C57.1796 16.1272 58.2778 15.8402 59.4597 15.8402C60.6412 15.8402 61.6467 16.1358 62.476 16.7266C63.3049 17.3177 63.918 18.0939 64.3149 19.0551C64.7119 20.0167 64.8308 21.0618 64.6721 22.1904C64.5133 23.3547 64.1033 24.4131 63.4417 25.3655C62.7804 26.3181 61.9468 27.0813 60.9413 27.6542C59.936 28.2275 58.8333 28.5141 57.6341 28.5141C56.4696 28.5141 55.4684 28.223 54.6309 27.6411C53.7928 27.059 53.1799 26.2875 52.792 25.3259C52.4037 24.3647 52.2802 23.3196 52.4216 22.1904C52.5803 21.0089 52.9904 19.9414 53.6519 18.9889Z" fill="white"/>
</svg>
